<svg width="1280" height="115" viewBox="0 0 1280 115" fill="none" xmlns="http://www.w3.org/2000/svg">
<rect x="147" width="27" height="115" fill="#206032"/>
<rect x="174" width="22" height="93" fill="#F6ECBF"/>
<rect x="196" width="18" height="67" fill="#E00000"/>
<rect x="107" width="17" height="67" fill="#C52727"/>
<rect x="124" width="23" height="93" fill="#F7ECBF"/>
<rect x="39" width="28" height="115" fill="#206032"/>
<rect x="67" width="22" height="93" fill="#F6ECBF"/>
<rect x="89" width="18" height="67" fill="#E00000"/>
<rect width="17" height="67" fill="#C52727"/>
<rect x="17" width="22" height="93" fill="#F7ECBF"/>
<rect width="27" height="115" transform="matrix(-1 0 0 1 280 0)" fill="#C52727"/>
<rect width="23" height="93" transform="matrix(-1 0 0 1 253 0)" fill="#C52727"/>
<rect width="17" height="67" transform="matrix(-1 0 0 1 230 0)" fill="#C52727"/>
<rect width="17" height="67" transform="matrix(-1 0 0 1 319 0)" fill="#C52727"/>
<rect width="22" height="93" transform="matrix(-1 0 0 1 302 0)" fill="#C52727"/>
<rect width="26" height="115" transform="matrix(-1 0 0 1 386 0)" fill="#F6ECBF"/>
<rect width="23" height="93" transform="matrix(-1 0 0 1 360 0)" fill="#F6ECBF"/>
<rect width="18" height="67" transform="matrix(-1 0 0 1 337 0)" fill="#F6ECBF"/>
<rect width="17" height="67" transform="matrix(-1 0 0 1 426 0)" fill="#F6ECBF"/>
<rect width="23" height="93" transform="matrix(-1 0 0 1 409 0)" fill="#F7ECBF"/>
<rect x="572" width="28" height="115" fill="#206032"/>
<rect x="600" width="23" height="93" fill="#206032"/>
<rect x="623" width="17" height="67" fill="#206032"/>
<rect x="533" width="18" height="67" fill="#F7ECBF"/>
<rect x="551" width="21" height="93" fill="#206032"/>
<rect x="466" width="28" height="115" fill="#206032"/>
<rect x="494" width="22" height="93" fill="#206032"/>
<rect x="516" width="17" height="67" fill="#F6ECBF"/>
<rect x="426" width="18" height="67" fill="#206032"/>
<rect x="444" width="22" height="93" fill="#206032"/>
<rect x="786" width="29" height="115" fill="#E00000"/>
<rect x="815" width="21" height="93" fill="#E00000"/>
<rect x="836" width="18" height="67" fill="#E00000"/>
<rect x="747" width="17" height="67" fill="#F7ECBF"/>
<rect x="764" width="22" height="93" fill="#E00000"/>
<rect x="680" width="28" height="115" fill="#2CA44E"/>
<rect x="708" width="21" height="93" fill="#2CA44E"/>
<rect x="729" width="18" height="67" fill="#F6ECBF"/>
<rect x="640" width="17" height="67" fill="#2CA44E"/>
<rect x="657" width="23" height="93" fill="#2CA44E"/>
<rect x="1212" width="29" height="115" fill="#E00000"/>
<rect x="1241" width="22" height="93" fill="#E00000"/>
<rect x="1263" width="17" height="67" fill="#E00000"/>
<rect x="1173" width="18" height="67" fill="#F7ECBF"/>
<rect x="1191" width="21" height="93" fill="#E00000"/>
<rect x="1106" width="28" height="115" fill="#2C4CA4"/>
<rect x="1134" width="22" height="93" fill="#2C4CA4"/>
<rect x="1156" width="17" height="67" fill="#F6ECBF"/>
<rect x="1066" width="18" height="67" fill="#2C4CA4"/>
<rect x="1084" width="22" height="93" fill="#2C4CA4"/>
<rect x="1001" width="27" height="115" fill="#F7ECBF"/>
<rect x="1028" width="22" height="93" fill="#F7ECBF"/>
<rect x="1050" width="17" height="67" fill="#F7ECBF"/>
<rect x="961" width="17" height="67" fill="#C52727"/>
<rect x="978" width="23" height="93" fill="#F7ECBF"/>
<rect x="894" width="26" height="115" fill="#F6ECBF"/>
<rect x="920" width="23" height="93" fill="#F6ECBF"/>
<rect x="943" width="18" height="67" fill="#C52727"/>
<rect x="943" y="44" width="35" height="23" fill="#F7ECBF"/>
<rect x="975" y="22" width="35" height="23" fill="#F7ECBF"/>
<rect x="911" y="21" width="35" height="23" fill="#F7ECBF"/>
<rect x="943" width="35" height="23" fill="#F7ECBF"/>
<rect x="854" width="17" height="67" fill="#F6ECBF"/>
<rect x="871" width="23" height="93" fill="#F6ECBF"/>
</svg>
