<svg width="15" height="14" viewBox="0 0 15 14" fill="none" xmlns="http://www.w3.org/2000/svg">
<path d="M7.53067 4.58594C7.53044 4.57842 7.53016 4.5709 7.52952 4.56334C7.52889 4.55575 7.52795 4.54826 7.52693 4.54079C7.52637 4.53693 7.52622 4.5331 7.52559 4.52921L7.10957 2.03312C7.10062 1.9792 7.08113 1.92758 7.05222 1.8812C7.02331 1.83481 6.98554 1.79458 6.94108 1.7628C6.89661 1.73102 6.84632 1.70831 6.79308 1.69598C6.73983 1.68364 6.68468 1.68192 6.63077 1.6909C6.57686 1.69989 6.52525 1.71941 6.47888 1.74835C6.43252 1.77729 6.39231 1.81509 6.36056 1.85957C6.32881 1.90406 6.30614 1.95436 6.29383 2.00762C6.28153 2.06087 6.27984 2.11602 6.28886 2.16993L6.62414 4.1816H5.65918V2.10152C5.65918 1.99119 5.61535 1.88537 5.53733 1.80736C5.45931 1.72934 5.3535 1.68551 5.24316 1.68551C5.13283 1.68551 5.02701 1.72934 4.949 1.80736C4.87098 1.88537 4.82715 1.99119 4.82715 2.10152V4.1816H3.86219L4.19746 2.16993C4.20648 2.11602 4.2048 2.06087 4.19249 2.00762C4.18019 1.95436 4.15752 1.90406 4.12577 1.85957C4.09401 1.81509 4.05381 1.77729 4.00744 1.74835C3.96108 1.71941 3.90947 1.69989 3.85556 1.6909C3.80165 1.68192 3.74649 1.68364 3.69325 1.69598C3.64001 1.70831 3.58972 1.73102 3.54525 1.7628C3.50079 1.79458 3.46302 1.83481 3.43411 1.8812C3.4052 1.92758 3.38571 1.9792 3.37676 2.03312L2.96074 4.52921C2.96011 4.5331 2.95995 4.53693 2.95939 4.54079C2.95838 4.54826 2.95744 4.55575 2.9568 4.56334C2.95617 4.5709 2.95589 4.57842 2.95566 4.58594C2.95556 4.58985 2.95508 4.59368 2.95508 4.59762C2.95508 4.60132 2.95533 4.60495 2.95536 4.60864C2.95543 4.6112 2.95543 4.61374 2.95556 4.61628C2.96058 5.14743 3.14999 5.66033 3.49139 6.06725C3.83279 6.47418 4.30496 6.74985 4.82715 6.84711V12.0859C4.82715 12.1962 4.87098 12.302 4.949 12.3801C5.02701 12.4581 5.13283 12.5019 5.24316 12.5019C5.3535 12.5019 5.45931 12.4581 5.53733 12.3801C5.61535 12.302 5.65918 12.1962 5.65918 12.0859V6.84711C6.18137 6.74985 6.65354 6.47418 6.99494 6.06725C7.33634 5.66032 7.52574 5.14742 7.53077 4.61628C7.53089 4.61374 7.53089 4.6112 7.53097 4.60864C7.531 4.60495 7.53125 4.60132 7.53125 4.59762C7.53125 4.59368 7.53077 4.58985 7.53067 4.58594Z" fill="black"/>
<path d="M11.899 2.0942C11.8989 2.08562 11.8984 2.07703 11.8977 2.06843C11.8973 2.06259 11.8968 2.0568 11.896 2.05103C11.8952 2.04385 11.894 2.03666 11.8928 2.02948C11.8915 2.02224 11.8901 2.01508 11.8885 2.00799C11.8872 2.00236 11.8857 1.99675 11.8841 1.99113C11.8818 1.98278 11.8793 1.97455 11.8765 1.96643C11.8757 1.96409 11.8752 1.96173 11.8744 1.95939C11.8734 1.95688 11.8723 1.95455 11.8713 1.95206C11.8681 1.94391 11.8648 1.9359 11.8611 1.92804C11.8588 1.92291 11.8564 1.91784 11.8538 1.91285C11.8504 1.90615 11.8468 1.89956 11.843 1.89307C11.8397 1.88726 11.8362 1.88154 11.8326 1.87593C11.8292 1.87065 11.8256 1.86552 11.822 1.86039C11.8176 1.8542 11.8131 1.84813 11.8084 1.84224C11.8049 1.8379 11.8013 1.83371 11.7977 1.82952C11.7925 1.82352 11.7872 1.81761 11.7817 1.81195C11.7778 1.80798 11.7738 1.80418 11.7698 1.80037C11.7643 1.79509 11.7587 1.78991 11.7529 1.78495C11.7482 1.78097 11.7434 1.77721 11.7385 1.77343C11.7331 1.76921 11.7276 1.76502 11.722 1.76106C11.7162 1.75702 11.7103 1.75324 11.7043 1.74951C11.6993 1.74634 11.6942 1.74313 11.689 1.74019C11.6822 1.73633 11.6753 1.73278 11.6683 1.7293C11.6635 1.72691 11.6587 1.72452 11.6538 1.72231C11.6464 1.71901 11.639 1.71602 11.6314 1.71312C11.6263 1.71122 11.6213 1.70931 11.6162 1.70759C11.6089 1.70512 11.6016 1.70297 11.5941 1.70091C11.5882 1.69926 11.5823 1.69771 11.5763 1.69631C11.5697 1.69481 11.563 1.69352 11.5563 1.69233C11.549 1.69101 11.5417 1.68989 11.5343 1.68897C11.5286 1.68829 11.5229 1.68773 11.5172 1.68725C11.5087 1.68656 11.5001 1.68613 11.4915 1.68595C11.4888 1.6859 11.4862 1.68555 11.4834 1.68555C11.4809 1.68555 11.4784 1.68588 11.4759 1.68593C11.4674 1.68608 11.4589 1.68654 11.4503 1.68722C11.4445 1.68768 11.4386 1.68821 11.4329 1.68892C11.4257 1.68981 11.4185 1.69093 11.4113 1.6922C11.4041 1.69347 11.3969 1.69487 11.3898 1.69652C11.3842 1.69781 11.3786 1.69928 11.373 1.70083C11.3646 1.70312 11.3564 1.70563 11.3483 1.70845C11.3459 1.70924 11.3436 1.70974 11.3412 1.71058C11.3361 1.71246 11.3311 1.71469 11.326 1.7166C11.324 1.71739 11.322 1.71807 11.3201 1.71888C10.2484 2.12167 9.39008 3.43647 8.76905 5.6283C8.48734 6.63971 8.28296 7.67107 8.15767 8.71348C8.15145 8.77151 8.15752 8.83021 8.17547 8.88575C8.19342 8.94129 8.22286 8.99243 8.26187 9.03585C8.30089 9.07927 8.3486 9.11399 8.40191 9.13776C8.45522 9.16153 8.51293 9.17382 8.5713 9.17383H11.0674V12.0859C11.0674 12.1963 11.1112 12.3021 11.1892 12.3801C11.2673 12.4581 11.3731 12.502 11.4834 12.502C11.5937 12.502 11.6996 12.4581 11.7776 12.3801C11.8556 12.3021 11.8994 12.1963 11.8994 12.0859V2.10156C11.8994 2.09907 11.8991 2.09669 11.899 2.0942Z" fill="black"/>
</svg>
