<svg width="19" height="21" viewBox="0 0 19 21" fill="none" xmlns="http://www.w3.org/2000/svg">
<path d="M12.7185 3.24653C12.0552 3.24531 11.4008 3.4089 10.8073 3.72427C10.2138 4.03964 9.69764 4.49809 9.29985 5.06315C8.7611 4.30005 8.01058 3.73663 7.15448 3.45261C6.29838 3.16859 5.38007 3.17837 4.52947 3.48054C3.67888 3.78272 2.93909 4.36201 2.41477 5.13642C1.89046 5.91084 1.60818 6.84117 1.60788 7.79578C1.60788 13.2445 8.71874 17.5463 9.02143 17.7268C9.10649 17.7775 9.20236 17.8041 9.29985 17.8041C9.39734 17.8041 9.4932 17.7775 9.57827 17.7268C10.8861 16.9114 12.1135 15.9579 13.2421 14.881C15.7302 12.497 16.9918 10.1132 16.9918 7.79578C16.9905 6.58966 16.5399 5.43334 15.7388 4.58048C14.9376 3.72763 13.8515 3.24789 12.7185 3.24653Z" fill="#DBE2E5"/>
</svg>
