<svg width="15" height="14" viewBox="0 0 15 14" fill="none" xmlns="http://www.w3.org/2000/svg">
<path d="M7.54687 1.24805C6.47723 1.24805 5.43161 1.56523 4.54223 2.15949C3.65286 2.75375 2.95968 3.5984 2.55034 4.58662C2.14101 5.57484 2.03391 6.66225 2.24258 7.71134C2.45126 8.76043 2.96634 9.72408 3.72269 10.4804C4.47904 11.2368 5.44269 11.7519 6.49178 11.9605C7.54087 12.1692 8.62828 12.0621 9.6165 11.6528C10.6047 11.2434 11.4494 10.5503 12.0436 9.66089C12.6379 8.77151 12.9551 7.72589 12.9551 6.65625C12.9534 5.22241 12.3831 3.84778 11.3692 2.8339C10.3553 1.82003 8.98071 1.2497 7.54687 1.24805ZM9.44169 7.00239L6.9456 8.66645C6.88296 8.70829 6.81013 8.73233 6.7349 8.736C6.65966 8.73967 6.58485 8.72283 6.51843 8.68729C6.45202 8.65175 6.39651 8.59883 6.35783 8.5342C6.31915 8.46956 6.29876 8.39564 6.29882 8.32031V4.99219C6.29876 4.91686 6.31915 4.84293 6.35783 4.7783C6.39651 4.71366 6.45202 4.66075 6.51843 4.62521C6.58485 4.58967 6.65966 4.57283 6.7349 4.5765C6.81013 4.58017 6.88296 4.60421 6.9456 4.64605L9.44169 6.31011C9.49868 6.3481 9.5454 6.39957 9.57772 6.45995C9.61004 6.52033 9.62695 6.58776 9.62695 6.65625C9.62695 6.72474 9.61004 6.79217 9.57772 6.85255C9.5454 6.91293 9.49868 6.9644 9.44169 7.00239Z" fill="white"/>
</svg>
